<svg width="12" height="12" viewBox="0 0 12 12" version="1.1" xmlns="http://www.w3.org/2000/svg" xmlns:xlink="http://www.w3.org/1999/xlink"><defs><path id="path-1" d="M0 .032h11.969V12H0z"/></defs><g id="Symbols" stroke="none" stroke-width="1" fill="none" fill-rule="evenodd"><g id="FOOTER" transform="translate(-1047 -144)"><g transform="translate(1047 144)" id="Group"><g id="insta"><mask id="mask-2" fill="#fff"><use xlink:href="#path-1"/></mask><path d="M9.686 2.315c.14.14.21.31.21.506 0 .198-.07.367-.21.506a.69.69 0 01-.508.21.69.69 0 01-.506-.21.69.69 0 01-.21-.506c0-.197.07-.367.21-.506a.69.69 0 01.506-.21.69.69 0 01.508.21M7.395 7.427c.39-.39.584-.86.584-1.41a1.92 1.92 0 00-.584-1.411c-.39-.39-.86-.585-1.41-.585-.551 0-1.021.195-1.411.585a1.92 1.92 0 00-.584 1.41c0 .55.194 1.02.584 1.41.39.39.86.585 1.41.585.55 0 1.02-.195 1.41-.584m.765-3.585c.597.598.896 1.323.896 2.174a2.96 2.96 0 01-.896 2.174 2.965 2.965 0 01-2.175.896 2.96 2.96 0 01-2.173-.896 2.96 2.96 0 01-.896-2.174c0-.851.299-1.576.896-2.174a2.96 2.96 0 012.173-.896c.852 0 1.577.299 2.175.896m-1.578-2.74l-.597.005-.596-.005h-.821c-.189.004-.439.01-.753.025a6.234 6.234 0 00-.802.077c-.22.04-.407.088-.557.144a2.04 2.04 0 00-1.138 1.138 3.197 3.197 0 00-.144.557c-.04.221-.066.488-.078.802-.013.315-.021.566-.024.753-.002.187-.002.46 0 .821l.005.597-.005.596c-.002.36-.002.635 0 .822.003.187.01.437.024.751.012.316.038.582.078.803.04.221.087.406.144.558.103.26.255.488.451.685.198.198.427.35.687.453.15.057.336.104.557.143.22.04.488.066.802.079.314.013.564.02.753.023.186.003.46.003.821 0l.596-.004c.036 0 .235 0 .597.004.36.003.634.003.822 0 .187-.003.437-.01.751-.023.315-.013.582-.04.803-.08a3.13 3.13 0 00.558-.142c.26-.104.487-.255.685-.453a2.02 2.02 0 00.452-.685c.057-.152.105-.337.144-.558.04-.22.065-.487.078-.803.013-.314.02-.564.023-.751.002-.187.002-.461 0-.822l-.003-.596c0-.037 0-.235.003-.597a26.26 26.26 0 00-.023-1.574 6.032 6.032 0 00-.078-.802 3.097 3.097 0 00-.144-.557 2.032 2.032 0 00-1.137-1.138 3.335 3.335 0 00-.558-.144 6.276 6.276 0 00-.803-.077 32.098 32.098 0 00-.751-.025H6.58m5.388 4.914c0 1.19-.013 2.013-.039 2.47-.052 1.08-.374 1.917-.967 2.508-.592.594-1.427.915-2.508.967-.458.026-1.282.039-2.47.039-1.19 0-2.014-.013-2.471-.039-1.08-.052-1.917-.373-2.509-.967-.592-.59-.915-1.427-.966-2.508C.012 8.029 0 7.206 0 6.016c0-1.19.013-2.013.04-2.47.051-1.081.374-1.917.966-2.51C1.597.445 2.434.123 3.514.07a53.312 53.312 0 012.47-.038c1.19 0 2.013.013 2.47.038 1.082.053 1.917.375 2.51.966.592.593.914 1.429.966 2.51.026.457.039 1.28.039 2.47" id="Fill-1" fill="#F5EFE8" mask="url(#mask-2)"/></g></g></g></g></svg>