<svg width="9" height="12" viewBox="0 0 9 12" version="1.1" xmlns="http://www.w3.org/2000/svg"><g id="Symbols" stroke="none" stroke-width="1" fill="none" fill-rule="evenodd"><g id="FOOTER" transform="translate(-1089 -145)" fill="#FFF"><g transform="translate(1047 144)" id="Group"><path d="M42 5.305c0-.519.087-1.008.264-1.467a3.77 3.77 0 01.727-1.201 4.971 4.971 0 012.37-1.45A5.489 5.489 0 0146.781 1c.741 0 1.43.16 2.067.48.638.32 1.157.785 1.555 1.396.399.61.597 1.3.597 2.07 0 .46-.044.913-.133 1.355a5.52 5.52 0 01-.422 1.276 4.494 4.494 0 01-.703 1.079 3.063 3.063 0 01-1.02.742 3.146 3.146 0 01-1.329.278c-.318 0-.635-.077-.95-.23-.313-.155-.538-.366-.674-.636-.048.188-.113.459-.197.812l-.165.685c-.026.103-.074.273-.144.512-.07.237-.132.408-.183.512l-.225.451a5.302 5.302 0 01-.323.559c-.118.174-.263.383-.436.623l-.099.036-.064-.072c-.07-.755-.105-1.206-.105-1.356 0-.442.05-.938.151-1.488.101-.552.257-1.242.469-2.074.21-.832.331-1.32.365-1.464-.15-.312-.226-.72-.226-1.219 0-.398.122-.773.367-1.124.242-.351.552-.527.927-.527.287 0 .51.097.669.292.158.195.238.44.238.739 0 .317-.103.777-.308 1.377-.207.601-.31 1.051-.31 1.35a.99.99 0 00.316.752c.21.2.466.3.766.3.259 0 .498-.06.718-.18.22-.12.404-.285.552-.49a4.087 4.087 0 00.66-1.482c.064-.282.11-.55.141-.801.03-.252.046-.491.046-.718 0-.832-.257-1.48-.77-1.943-.513-.463-1.183-.696-2.007-.696-.938 0-1.721.311-2.35.934-.627.622-.941 1.411-.941 2.369 0 .21.03.416.088.613.058.197.121.353.19.47.067.113.13.223.19.327a.552.552 0 01.087.22 1.8 1.8 0 01-.106.526c-.069.216-.156.324-.26.324a.957.957 0 01-.119-.022 1.43 1.43 0 01-.636-.403 2.084 2.084 0 01-.428-.681 4.422 4.422 0 01-.23-.78A3.898 3.898 0 0142 5.305" id="pinterest"/></g></g></g></svg>