<svg width="14" height="10" viewBox="0 0 14 10" version="1.1" xmlns="http://www.w3.org/2000/svg" xmlns:xlink="http://www.w3.org/1999/xlink"><defs><path id="path-1" d="M0 1h14v10H0z"/></defs><g id="Symbols" stroke="none" stroke-width="1" fill="none" fill-rule="evenodd"><g id="FOOTER" transform="translate(-1198 -146)"><g transform="translate(1047 144)" id="Group"><g id="youtube" transform="translate(151 1)"><mask id="mask-2" fill="#fff"><use xlink:href="#path-1"/></mask><path d="M10 6a.45.45 0 00-.235-.422l-4-2.5a.47.47 0 00-.507-.015A.464.464 0 005 3.5v5c0 .198.087.344.26.437a.53.53 0 00.24.062.445.445 0 00.267-.078l3.999-2.5C9.922 6.334 10 6.192 10 6m3.993-1.171a81.303 81.303 0 010 2.342 15.89 15.89 0 01-.067 1.067c-.038.43-.098.814-.176 1.152a1.82 1.82 0 01-.539.961 1.64 1.64 0 01-.968.453C11.086 10.934 9.338 11 7 11c-2.34 0-4.087-.065-5.242-.196a1.656 1.656 0 01-.973-.453 1.82 1.82 0 01-.544-.96 9.891 9.891 0 01-.167-1.153A15.15 15.15 0 01.008 7.17 60.89 60.89 0 010 6c0-.5.002-.891.008-1.171.005-.283.027-.637.065-1.067.04-.43.099-.814.177-1.152a1.82 1.82 0 01.539-.961c.276-.26.598-.412.97-.453C2.912 1.066 4.66 1 7 1c2.338 0 4.086.065 5.242.196.37.04.694.192.973.453.279.26.458.58.542.96.074.34.13.723.168 1.153.039.43.061.784.067 1.067" id="Fill-11" fill="#FFF" mask="url(#mask-2)"/></g></g></g></g></svg>